<?xml version="1.0" standalone="no"?>
<svg xmlns:xlink="http://www.w3.org/1999/xlink" id="wave" style="transform:rotate(180deg); transition: 0.3s" viewBox="0 0 1440 100" version="1.1" xmlns="http://www.w3.org/2000/svg"><defs><linearGradient id="sw-gradient-0" x1="0" x2="0" y1="1" y2="0"><stop stop-color="rgba(99, 7, 7, 1)" offset="0%"/><stop stop-color="rgba(99, 7, 7, 1)" offset="100%"/></linearGradient></defs><path style="transform:translate(0, 0px); opacity:1" fill="url(#sw-gradient-0)" d="M0,50L240,30L480,20L720,60L960,20L1200,80L1440,50L1680,10L1920,80L2160,0L2400,10L2640,80L2880,70L3120,70L3360,20L3600,0L3840,40L4080,80L4320,0L4560,20L4800,60L5040,40L5280,30L5520,60L5760,40L5760,100L5520,100L5280,100L5040,100L4800,100L4560,100L4320,100L4080,100L3840,100L3600,100L3360,100L3120,100L2880,100L2640,100L2400,100L2160,100L1920,100L1680,100L1440,100L1200,100L960,100L720,100L480,100L240,100L0,100Z"/></svg>